<svg width="280" height="112" viewBox="0 0 280 112" fill="none" xmlns="http://www.w3.org/2000/svg">
<rect x="1.5" y="1.49998" width="277" height="109" rx="54.5" fill="#F1348A" stroke="#F0E4CE" stroke-width="3"/>
<circle cx="56" cy="56" r="49" fill="#F0E4CE"/>
<path d="M58.5054 68.6V43.1908H62.3813V46.8036C64.2476 44.0123 66.9432 42.6166 70.4683 42.6166C71.9995 42.6166 73.4032 42.8957 74.6792 43.454C75.9712 43.9963 76.9362 44.7141 77.5742 45.6073C78.2122 46.5006 78.6589 47.5613 78.9141 48.7895C79.0736 49.587 79.1533 50.9827 79.1533 52.9765V68.6H74.8467V53.144C74.8467 51.3894 74.6792 50.0815 74.3442 49.2201C74.0093 48.3428 73.4111 47.649 72.5498 47.1386C71.7044 46.6122 70.7075 46.349 69.5591 46.349C67.7248 46.349 66.1377 46.9312 64.7979 48.0956C63.474 49.26 62.812 51.4691 62.812 54.7231V68.6H58.5054Z" fill="#F1348A"/>
<path d="M29.6268 55.8954C29.6268 51.19 30.9348 47.7048 33.5507 45.4398C35.7359 43.5577 38.3996 42.6166 41.5419 42.6166C45.035 42.6166 47.8902 43.765 50.1073 46.0619C52.3244 48.3428 53.433 51.501 53.433 55.5365C53.433 58.8064 52.9385 61.3824 51.9496 63.2645C50.9766 65.1308 49.549 66.5822 47.6669 67.619C45.8007 68.6558 43.759 69.1742 41.5419 69.1742C37.9849 69.1742 35.1058 68.0337 32.9047 65.7528C30.7194 63.4719 29.6268 60.1861 29.6268 55.8954ZM34.0531 55.8954C34.0531 59.1493 34.7629 61.5897 36.1825 63.2167C37.6021 64.8277 39.3885 65.6332 41.5419 65.6332C43.6792 65.6332 45.4577 64.8197 46.8773 63.1928C48.2969 61.5658 49.0067 59.0855 49.0067 55.7518C49.0067 52.6096 48.2889 50.233 46.8534 48.622C45.4338 46.995 43.6633 46.1815 41.5419 46.1815C39.3885 46.1815 37.6021 46.987 36.1825 48.598C34.7629 50.209 34.0531 52.6415 34.0531 55.8954Z" fill="#F1348A"/>
<path d="M240.262 68.6V46.5404H236.458V43.1908H240.262V40.4872C240.262 38.7805 240.414 37.5124 240.717 36.683C241.132 35.5665 241.858 34.6653 242.894 33.9794C243.947 33.2776 245.414 32.9267 247.297 32.9267C248.509 32.9267 249.849 33.0702 251.316 33.3573L250.67 37.1137C249.777 36.9542 248.932 36.8744 248.134 36.8744C246.826 36.8744 245.901 37.1536 245.359 37.7118C244.816 38.2701 244.545 39.3148 244.545 40.8461V43.1908H249.498V46.5404H244.545V68.6H240.262Z" fill="#F0E4CE"/>
<path d="M227.534 68.6V46.5404H223.73V43.1908H227.534V40.4872C227.534 38.7805 227.686 37.5124 227.989 36.683C228.403 35.5665 229.129 34.6653 230.166 33.9794C231.219 33.2776 232.686 32.9267 234.568 32.9267C235.78 32.9267 237.12 33.0702 238.588 33.3573L237.942 37.1137C237.049 36.9542 236.203 36.8744 235.406 36.8744C234.098 36.8744 233.173 37.1536 232.63 37.7118C232.088 38.2701 231.817 39.3148 231.817 40.8461V43.1908H236.769V46.5404H231.817V68.6H227.534Z" fill="#F0E4CE"/>
<path d="M197.627 55.8954C197.627 51.19 198.935 47.7048 201.551 45.4398C203.736 43.5577 206.399 42.6166 209.542 42.6166C213.035 42.6166 215.89 43.765 218.107 46.0619C220.324 48.3428 221.433 51.501 221.433 55.5365C221.433 58.8064 220.938 61.3824 219.949 63.2646C218.976 65.1308 217.549 66.5823 215.667 67.619C213.801 68.6558 211.759 69.1742 209.542 69.1742C205.985 69.1742 203.106 68.0338 200.905 65.7528C198.719 63.4719 197.627 60.1861 197.627 55.8954ZM202.053 55.8954C202.053 59.1493 202.763 61.5898 204.182 63.2167C205.602 64.8277 207.388 65.6332 209.542 65.6332C211.679 65.6332 213.458 64.8197 214.877 63.1928C216.297 61.5658 217.007 59.0855 217.007 55.7519C217.007 52.6096 216.289 50.233 214.853 48.622C213.434 46.995 211.663 46.1815 209.542 46.1815C207.388 46.1815 205.602 46.9871 204.182 48.5981C202.763 50.2091 202.053 52.6415 202.053 55.8954Z" fill="#F0E4CE"/>
</svg>
